<?xml version="1.0" standalone="no"?>
<!DOCTYPE svg PUBLIC "-//W3C//DTD SVG 20010904//EN"
 "http://www.w3.org/TR/2001/REC-SVG-20010904/DTD/svg10.dtd">
<svg version="1.0" xmlns="http://www.w3.org/2000/svg"
 width="900.000000pt" height="900.000000pt" viewBox="0 0 900.000000 900.000000"
 preserveAspectRatio="xMidYMid meet">

<g transform="translate(0.000000,900.000000) scale(0.100000,-0.100000)"
fill="#000000" stroke="none">
<path d="M4470 8113 c-8 -3 -195 -91 -415 -196 -873 -415 -1251 -598 -1268
-616 -28 -27 -26 -85 3 -116 33 -35 75 -32 167 10 42 19 77 35 79 35 2 0 4
-357 4 -793 l0 -794 -192 -93 c-106 -51 -319 -154 -473 -228 -154 -74 -341
-163 -415 -199 -74 -36 -229 -110 -345 -165 -115 -55 -218 -108 -229 -118 -11
-11 -19 -33 -20 -56 -1 -32 4 -41 33 -61 19 -13 46 -23 60 -23 14 0 153 61
309 135 156 74 285 135 288 135 2 0 4 -895 4 -1990 0 -1436 3 -1996 11 -2013
6 -14 22 -30 36 -36 17 -8 678 -11 2393 -11 1715 0 2376 3 2393 11 14 6 30 22
36 36 8 17 11 577 11 2013 0 1095 2 1990 4 1990 7 0 131 -58 360 -169 115 -56
221 -101 235 -101 38 0 81 47 81 87 0 19 -9 42 -22 56 -13 14 -183 102 -383
197 -198 95 -495 238 -660 317 -165 80 -371 179 -457 220 l-158 76 0 794 c0
436 2 793 5 793 2 0 45 -19 94 -41 83 -38 93 -41 121 -29 58 24 75 104 31 144
-10 9 -184 96 -387 192 -203 97 -562 268 -799 381 -394 188 -497 234 -514 232
-3 0 -13 -3 -21 -6z m673 -489 l627 -298 0 -793 c0 -446 -4 -793 -9 -793 -5 0
-98 43 -207 96 -640 309 -1022 486 -1049 487 -27 0 -347 -148 -1049 -487 -109
-53 -202 -96 -207 -96 -5 0 -9 347 -9 795 l0 795 148 70 c906 433 1108 528
1117 525 6 -1 292 -137 638 -301z m-383 -1610 c419 -199 475 -226 830 -395
184 -88 522 -249 750 -357 l415 -198 3 -1987 2 -1987 -695 0 -695 0 0 784 c0
860 0 863 -60 1012 -45 112 -94 188 -180 278 -118 124 -251 203 -415 247 -116
31 -308 32 -423 1 -168 -45 -316 -134 -429 -256 -78 -85 -120 -151 -169 -264
-64 -148 -64 -150 -64 -1013 l0 -779 -695 0 -695 0 2 1982 3 1982 1125 537
c619 295 1125 537 1125 538 1 1 120 -56 265 -125z m-146 -2768 c151 -29 294
-110 396 -223 59 -66 142 -228 160 -313 8 -38 13 -299 17 -832 l6 -778 -697 0
-696 0 0 769 c0 845 0 851 60 980 98 209 272 346 500 395 86 19 162 19 254 2z"/>
<path d="M4363 7412 c-66 -26 -130 -77 -164 -129 -54 -86 -59 -121 -59 -401
l0 -254 29 -29 29 -29 302 0 302 0 29 30 30 30 -3 272 -3 273 -28 60 c-36 76
-110 147 -183 175 -71 26 -218 27 -281 2z m258 -197 c54 -51 59 -75 59 -280
l0 -185 -181 0 -180 0 3 199 c3 222 5 229 79 279 30 21 44 23 111 20 69 -3 80
-6 109 -33z"/>
<path d="M4464 5430 c-50 -21 -54 -39 -54 -272 l0 -218 -164 0 c-159 0 -166
-1 -193 -24 -22 -19 -28 -32 -28 -66 0 -34 6 -47 28 -66 27 -23 34 -24 193
-24 l164 0 0 -339 0 -340 24 -28 c19 -22 32 -28 66 -28 34 0 47 6 66 28 l24
28 0 340 0 339 164 0 c159 0 166 1 193 24 22 19 28 32 28 66 0 34 -6 47 -28
66 -27 23 -34 24 -193 24 l-164 0 0 219 c0 214 -1 221 -22 245 -25 29 -72 40
-104 26z"/>
<path d="M3860 183 c0 -5 7 -18 15 -29 13 -18 14 -18 8 4 -5 22 -23 41 -23 25z"/>
<path d="M3945 170 c9 -30 13 -35 21 -27 3 3 -2 16 -11 29 l-17 23 7 -25z"/>
<path d="M4128 183 c6 -2 18 -2 25 0 6 3 1 5 -13 5 -14 0 -19 -2 -12 -5z"/>
<path d="M4188 183 c6 -2 12 -9 12 -14 0 -6 -4 -7 -10 -4 -5 3 -10 1 -10 -5 0
-18 25 -6 28 13 2 11 -3 17 -15 16 -10 0 -13 -3 -5 -6z"/>
<path d="M4242 165 c-14 -30 -12 -31 10 -5 10 10 14 22 9 24 -4 3 -13 -6 -19
-19z"/>
<path d="M4296 181 c-4 -5 3 -7 14 -4 23 6 26 13 6 13 -8 0 -17 -4 -20 -9z"/>
<path d="M4368 183 c7 -3 16 -2 19 1 4 3 -2 6 -13 5 -11 0 -14 -3 -6 -6z"/>
<path d="M4482 184 c9 -3 19 -13 22 -22 3 -12 4 -12 3 3 -1 12 -10 21 -22 22
-15 1 -15 0 -3 -3z"/>
<path d="M4536 183 c5 -5 12 -12 16 -18 4 -6 8 -2 8 8 0 9 -7 17 -17 17 -9 0
-12 -3 -7 -7z"/>
<path d="M4592 165 c0 -16 2 -22 5 -12 2 9 2 23 0 30 -3 6 -5 -1 -5 -18z"/>
<path d="M4625 180 c3 -5 8 -10 11 -10 2 0 4 5 4 10 0 6 -5 10 -11 10 -5 0 -7
-4 -4 -10z"/>
<path d="M4696 181 c-4 -5 3 -7 14 -4 23 6 26 13 6 13 -8 0 -17 -4 -20 -9z"/>
<path d="M4758 183 c7 -3 16 -2 19 1 4 3 -2 6 -13 5 -11 0 -14 -3 -6 -6z"/>
<path d="M4878 183 c7 -3 16 -2 19 1 4 3 -2 6 -13 5 -11 0 -14 -3 -6 -6z"/>
<path d="M4928 183 c7 -3 16 -2 19 1 4 3 -2 6 -13 5 -11 0 -14 -3 -6 -6z"/>
<path d="M4988 183 c7 -3 16 -2 19 1 4 3 -2 6 -13 5 -11 0 -14 -3 -6 -6z"/>
<path d="M5123 175 c-3 -9 -3 -19 1 -22 3 -4 6 1 6 10 0 8 8 18 18 20 16 4 16
5 -1 6 -10 0 -20 -6 -24 -14z"/>
<path d="M5185 180 c-3 -5 -1 -10 4 -10 6 0 11 5 11 10 0 6 -2 10 -4 10 -3 0
-8 -4 -11 -10z"/>
<path d="M5216 173 c-6 -14 -5 -15 5 -6 7 7 10 15 7 18 -3 3 -9 -2 -12 -12z"/>
<path d="M3780 169 c0 -5 5 -7 10 -4 6 3 10 8 10 11 0 2 -4 4 -10 4 -5 0 -10
-5 -10 -11z"/>
<path d="M4021 164 c0 -11 3 -14 6 -6 3 7 2 16 -1 19 -3 4 -6 -2 -5 -13z"/>
<path d="M3760 161 c0 -6 4 -13 10 -16 6 -3 7 1 4 9 -7 18 -14 21 -14 7z"/>
<path d="M3805 159 c-4 -6 -5 -12 -2 -15 2 -3 7 2 10 11 7 17 1 20 -8 4z"/>
<path d="M4750 158 c0 -4 4 -8 9 -8 6 0 12 4 15 8 3 5 -1 9 -9 9 -8 0 -15 -4
-15 -9z"/>
<path d="M4928 163 c7 -3 16 -2 19 1 4 3 -2 6 -13 5 -11 0 -14 -3 -6 -6z"/>
<path d="M3840 150 c0 -5 5 -10 10 -10 6 0 10 5 10 10 0 6 -4 10 -10 10 -5 0
-10 -4 -10 -10z"/>
<path d="M3925 150 c-3 -5 -1 -10 4 -10 6 0 11 5 11 10 0 6 -2 10 -4 10 -3 0
-8 -4 -11 -10z"/>
</g>
</svg>
